<svg xmlns="http://www.w3.org/2000/svg" width="320px" height="320px" viewBox="0 0 320 320">
  <defs/>
  <defs>
    <style>
      .cls-1{fill:#fff}
    </style>
  </defs>
  <path id="bck-2" d="M0 0h320v320H0z"/>
  <g id="cat">
    <path d="M122 290h-6v1h3v10h-3v1h9v-1h-3v-11zM108 295h-1v-1h-7v1h5v2h-5v1h-1v3h1v1h5v-1h-3v-3h3v3h2v1h2v-1h-1v-6zM85 302h4v-1h-3v-7h-3v7h2v1zM91 302h2v-1h-1v-7h-3v7h2v1zM75 294h-7v1h-1v2h1v1h2v1h3v2h-4v-2h-2v2h1v1h7v-1h1v-2h-1v-1h-2v-1h-3v-2h4v2h2v-2h-1v-1zM61 301h-3v-7h-6v1h3v6h-3v1h9v-1zM55 290h3v3h-3zM213 146v2h1v1h3v-1h-1v-3h-3v1zM295 304h2v-16h-2zM297 240h2v48h-2zM295 48h2v192h-2z" class="cls-1"/>
    <path d="M7 7v306h306V7zm304 304H9V43h302zm0-270H9v-2h302zm0-4H9V9h302z" class="cls-1"/>
    <path d="M150 149h-1v1h3v-1h1v-3h-3v3zM136 149h1v-3h-3v3h-1v1h3v-1zM198 85h1v-1h2v1h1v1h3v-1h-1v-1h-1v-1h-1v-1h-1v-1h-2v1h-1v1h-1v1h-1v1h-1v1h3zM166 85h1v-1h2v1h1v1h3v-1h-1v-1h-1v-1h-1v-1h-1v-1h-2v1h-1v1h-1v1h-1v1h-1v1h3zM199 103v-5h-3v4h1v1h2zM202 103h2v-1h1v-4h-3v5zM167 103v-5h-3v4h1v1h2zM170 103h2v-1h1v-4h-3v5zM182 108h2v2h3v-2h-1v-1h-1v-2h1v-1h1v-2h-3v2h-2v-2h-3v2h1v1h1v2h-1v1h-1v2h3v-2zM212 106h1v1h1v1h1v1h1v1h1v1h3v-1h-1v-1h-1v-1h-1v-1h-1v-1h-1v-1h-1v-2h1v-1h1v-1h1v-1h1v-1h1v-1h1v-1h-3v1h-1v1h-1v1h-1v1h-1v1h-1v1h-1v2h1v1zM150 110h1v-1h1v-1h1v-1h1v-1h1v-1h1v-2h-1v-1h-1v-1h-1v-1h-1v-1h-1v-1h-1v-1h-3v1h1v1h1v1h1v1h1v1h1v1h1v2h-1v1h-1v1h-1v1h-1v1h-1v1h-1v1h3v-1zM214 117h-1v1h3v-1h1v-3h-3v3zM153 117v-1h-1v-3h-3v3h1v1h3zM199 119h2v2h-2zM183 119h2v2h-2zM167 119h2v2h-2zM180 140h4v-1h2v1h3v-3h-1v-2h1v-3h-3v1h-2v-1h-4v1h-1v6h1zm1-5h1v-1h2v1h1v2h-1v1h-2v-1h-1zM198 139h3v3h-3zM166 139h3v3h-3zM198 155h3v3h-3zM182 155h3v3h-3zM166 155h3v3h-3zM148 141h1v-1h1v-1h1v-1h1v-1h1v-1h1v-1h1v-1h1v-1h1v-1h1v-2h-2v1h-1v1h-1v1h-1v1h-1v1h-1v1h-1v1h-1v1h-1v1h-1v1h-1v2h2zM68 141h1v-1h1v-1h1v-1h1v-1h1v-1h1v-1h1v-1h1v-1h1v-1h1v-2h-2v1h-1v1h-1v1h-1v1h-1v1h-1v1h-1v1h-1v1h-1v1h-1v1h-1v2h2zM99 133h1v1h1v1h1v1h1v1h1v1h1v1h1v1h1v1h1v1h2v-2h-1v-1h-1v-1h-1v-1h-1v-1h-1v-1h-1v-1h-1v-1h-1v-1h-1v-1h-1v-1h-2v2h1zM99 149h1v1h1v1h1v1h1v1h1v1h1v1h1v1h1v1h1v1h2v-2h-1v-1h-1v-1h-1v-1h-1v-1h-1v-1h-1v-1h-1v-1h-1v-1h-1v-1h-1v-1h-2v2h1zM115 149h1v1h1v1h1v1h1v1h1v1h1v1h1v1h1v1h1v1h2v-2h-1v-1h-1v-1h-1v-1h-1v-1h-1v-1h-1v-1h-1v-1h-1v-1h-1v-1h-1v-1h-2v2h1zM131 213h1v1h1v1h1v1h1v1h1v1h1v1h1v1h1v1h1v1h2v-2h-1v-1h-1v-1h-1v-1h-1v-1h-1v-1h-1v-1h-1v-1h-1v-1h-1v-1h-1v-1h-2v2h1zM163 245h1v1h1v1h1v1h1v1h1v1h1v1h1v1h1v1h1v1h2v-2h-1v-1h-1v-1h-1v-1h-1v-1h-1v-1h-1v-1h-1v-1h-1v-1h-1v-1h-1v-1h-2v2h1zM182 171h3v3h-3zM198 171h3v3h-3zM166 171h3v3h-3zM198 187h3v3h-3zM182 187h3v3h-3zM166 187h3v3h-3zM182 203h3v3h-3zM167 199h2v2h-2zM213 173h3v-1h1v-3h-3v3h-1v1zM214 164h3v3h-3zM214 185h4v5h-4zM214 178h4v5h-4zM214 201h4v5h-4zM214 194h4v5h-4zM214 217h4v5h-4zM214 210h4v5h-4zM214 233h4v5h-4zM214 226h4v5h-4zM214 249h4v5h-4zM214 242h4v5h-4zM211 265h10v1h-10zM218 264v-1h2v-4h-2v-1h-4v1h-2v4h2v1zm-4-4h1v-1h2v1h1v2h-1v1h-2v-1h-1zM147 265h10v1h-10zM148 263h2v1h4v-1h2v-4h-2v-1h-4v1h-2zm2-3h1v-1h2v1h1v2h-1v1h-2v-1h-1zM150 249h4v5h-4zM150 242h4v5h-4zM84 132h1v-1h2v10h-2v1h7v-1h-2v-10h2v1h1v1h1v-3H83v3h1v-1zM73 155h-1v1h-1v-1h-1v-9h-3v9h1v1h1v1h1v1h3v-1h1v-1h1v-1h1v-9h-3v9zM121 162h-3v3h-1v1h3v-1h1v-3zM105 178h-3v3h-1v1h3v-1h1v-3zM89 194h-3v3h-1v1h3v-1h1v-3zM89 210h-3v3h-1v1h3v-1h1v-3zM89 226h-3v3h-1v1h3v-1h1v-3zM86 245h-1v1h3v-1h1v-3h-3v3zM135 167h2v2h-2zM135 183h2v2h-2zM119 183h2v2h-2zM135 199h2v2h-2zM103 199h2v2h-2zM113 206h14v2h-14zM103 231h2v2h-2zM135 231h2v2h-2zM119 231h2v2h-2zM103 215h2v2h-2zM119 247h2v2h-2zM135 247h2v2h-2zM103 246h2v2h-2zM101 258v2h1v1h3v-1h-1v-3h-3v1zM150 233h4v5h-4zM150 226h4v5h-4zM150 217h4v5h-4zM150 210h4v5h-4zM149 205h3v-1h1v-3h-3v3h-1v1zM150 196h3v3h-3zM150 185h3v3h-3zM150 180h3v3h-3zM150 169h3v3h-3zM150 164h3v3h-3zM213 130v2h1v1h3v-1h-1v-3h-3v1zM145 302h14v2h-14zM131 293h1v-1h1v-1h2v10h-2v1h7v-1h-2v-10h2v1h1v1h1v-3h-11v3zM36 300h1v1h1v1h3v-1h1v-1h1v-1h1v-9h-3v9h-1v1h-1v-1h-1v-9h-3v9h1v1zM22 302h1v-1h1v-1h1v-1h1v-1h1v-1h1v-2h-1v-1h-1v-1h-1v-1h-1v-1h-1v-1h-1v-1h-3v1h1v1h1v1h1v1h1v1h1v1h1v2h-1v1h-1v1h-1v1h-1v1h-1v1h-1v1h3v-1zM293 24h1v1h4v-1h1v-1h1v-3h-1v-1h-1v-1h-4v1h-1v1h-1v3h1zm1-4h1v-1h2v1h1v3h-1v1h-2v-1h-1zM277 24h1v1h4v-1h1v-1h1v-3h-1v-1h-1v-1h-4v1h-1v1h-1v3h1zm1-4h1v-1h2v1h1v3h-1v1h-2v-1h-1zM261 24h1v1h4v-1h1v-1h1v-3h-1v-1h-1v-1h-4v1h-1v1h-1v3h1zm1-4h1v-1h2v1h1v3h-1v1h-2v-1h-1zM181 267h1v-1h1v-1h1v-2h-1v-1h-1v-1h-1v-1h-3v1h1v1h1v1h1v2h-1v1h-1v1h-1v1h3v-1zM189 262h-1v-1h-1v-1h-3v1h1v1h1v1h1v2h-1v1h-1v1h-1v1h3v-1h1v-1h1v-1h1v-2h-1v-1zM293 240h2v48h-2zM144 265v-2h-32v2h32z" class="cls-1"/>
  </g>
</svg>
